<svg xmlns="http://www.w3.org/2000/svg" viewBox="0 0 400 320" width="400" height="320">

  <!-- FLOWER BACKDROP top -->
  <ellipse cx="200" cy="38" rx="140" ry="28" fill="#c8506a" opacity="0.3"/>
  <circle cx="118" cy="28" r="12" fill="#e8607a" opacity="0.72"/>
  <circle cx="136" cy="20" r="10" fill="#f080a0" opacity="0.78"/>
  <circle cx="156" cy="14" r="13" fill="#e06888" opacity="0.72"/>
  <circle cx="178" cy="10" r="11" fill="#f090b0" opacity="0.78"/>
  <circle cx="200" cy="8"  r="12" fill="#e8607a" opacity="0.72"/>
  <circle cx="222" cy="10" r="10" fill="#f080a0" opacity="0.72"/>
  <circle cx="244" cy="14" r="12" fill="#e06888" opacity="0.68"/>
  <circle cx="264" cy="20" r="10" fill="#f090b0" opacity="0.68"/>
  <circle cx="282" cy="28" r="9"  fill="#e8607a" opacity="0.65"/>
  <!-- small blooms -->
  <circle cx="126" cy="34" r="5" fill="#f8c0d0" opacity="0.85"/>
  <circle cx="164" cy="24" r="6" fill="#ffd0e0" opacity="0.85"/>
  <circle cx="200" cy="20" r="5" fill="#f8c0d0" opacity="0.8"/>
  <circle cx="236" cy="24" r="6" fill="#ffd0e0" opacity="0.8"/>
  <circle cx="274" cy="32" r="5" fill="#f8c0d0" opacity="0.75"/>
  <!-- flower centres -->
  <circle cx="156" cy="14" r="4" fill="#ffe090"/>
  <circle cx="200" cy="8"  r="3.5" fill="#ffd070"/>
  <circle cx="244" cy="14" r="4" fill="#ffe090"/>

  <!-- ROOF layers -->
  <rect x="4"   y="38" width="392" height="16" fill="#a03050" rx="4"/>
  <rect x="10"  y="24" width="380" height="18" fill="#b84060" rx="4"/>
  <rect x="10"  y="22" width="380" height="5"  fill="#a03050" rx="2"/>

  <!-- MAIN BODY — warm dusty rose -->
  <rect x="10"  y="52" width="380" height="218" fill="#d4607a" rx="6"/>

  <!-- SIDE TRIM -->
  <rect x="10"  y="52" width="10" height="218" fill="#c05068" rx="3"/>
  <rect x="380" y="52" width="10" height="218" fill="#c05068" rx="3"/>

  <!-- ═══ OPEN FRONT DISPLAY ═══ -->
  <!-- warm amber interior -->
  <rect x="24"  y="58" width="248" height="198" fill="#7a3e14" rx="4"/>
  <rect x="26"  y="60" width="244" height="194" fill="#b85e20" rx="3" opacity="0.65"/>
  <rect x="28"  y="62" width="240" height="190" fill="#e08020" rx="3" opacity="0.35"/>

  <!-- interior floor -->
  <rect x="24"  y="240" width="248" height="14" fill="#6a3810" rx="2"/>
  <rect x="26"  y="238" width="244" height="6"  fill="#9a5828" rx="1"/>

  <!-- SHELF BOARDS -->
  <rect x="24"  y="110" width="248" height="6"  fill="#7a4818" rx="1"/>
  <rect x="24"  y="154" width="248" height="6"  fill="#7a4818" rx="1"/>
  <rect x="24"  y="198" width="248" height="6"  fill="#7a4818" rx="1"/>
  <!-- shelf lip highlight -->
  <rect x="24"  y="110" width="248" height="2"  fill="#a06830" rx="1" opacity="0.6"/>
  <rect x="24"  y="154" width="248" height="2"  fill="#a06830" rx="1" opacity="0.6"/>
  <rect x="24"  y="198" width="248" height="2"  fill="#a06830" rx="1" opacity="0.6"/>
  <!-- vertical divider -->
  <rect x="140" y="62"  width="5"   height="178" fill="#6a3810" rx="1"/>

  <!-- TOP SHELF books row 1 (y=62 to y=110) -->
  <rect x="28"  y="64"  width="6"  height="43" fill="#c84040" rx="1"/>
  <rect x="36"  y="66"  width="9"  height="41" fill="#4080c8" rx="1"/>
  <rect x="47"  y="63"  width="7"  height="44" fill="#40a848" rx="1"/>
  <rect x="56"  y="65"  width="10" height="42" fill="#c87830" rx="1"/>
  <rect x="68"  y="63"  width="6"  height="44" fill="#8840c0" rx="1"/>
  <rect x="76"  y="66"  width="8"  height="41" fill="#c04858" rx="1"/>
  <rect x="86"  y="64"  width="7"  height="43" fill="#3890a8" rx="1"/>
  <rect x="95"  y="65"  width="9"  height="42" fill="#a8803a" rx="1"/>
  <rect x="106" y="63"  width="6"  height="44" fill="#c84040" rx="1"/>
  <rect x="114" y="65"  width="8"  height="42" fill="#4060b0" rx="1"/>
  <rect x="124" y="64"  width="7"  height="43" fill="#50a860" rx="1"/>
  <rect x="133" y="65"  width="5"  height="42" fill="#b87040" rx="1"/>
  <!-- right side top shelf -->
  <rect x="147" y="64"  width="8"  height="43" fill="#c05030" rx="1"/>
  <rect x="157" y="66"  width="10" height="41" fill="#4060b0" rx="1"/>
  <rect x="169" y="63"  width="6"  height="44" fill="#50a860" rx="1"/>
  <rect x="177" y="65"  width="9"  height="42" fill="#b87040" rx="1"/>
  <rect x="188" y="63"  width="7"  height="44" fill="#9040a0" rx="1"/>
  <rect x="197" y="66"  width="10" height="41" fill="#c84848" rx="1"/>
  <rect x="209" y="64"  width="6"  height="43" fill="#3880c0" rx="1"/>
  <rect x="217" y="65"  width="8"  height="42" fill="#a07838" rx="1"/>
  <rect x="227" y="64"  width="7"  height="43" fill="#c04060" rx="1"/>
  <rect x="236" y="66"  width="8"  height="41" fill="#408870" rx="1"/>
  <rect x="246" y="63"  width="6"  height="44" fill="#c84040" rx="1"/>
  <rect x="254" y="65"  width="8"  height="42" fill="#5888d0" rx="1"/>
  <rect x="264" y="64"  width="7"  height="43" fill="#48a060" rx="1"/>

  <!-- MID SHELF books (y=116 to y=154) -->
  <rect x="28"  y="118" width="8"  height="33" fill="#d05050" rx="1"/>
  <rect x="38"  y="120" width="6"  height="30" fill="#5090d0" rx="1"/>
  <rect x="46"  y="117" width="9"  height="34" fill="#50b058" rx="1"/>
  <rect x="57"  y="119" width="7"  height="31" fill="#d08840" rx="1"/>
  <rect x="66"  y="117" width="6"  height="34" fill="#9050c8" rx="1"/>
  <rect x="74"  y="120" width="9"  height="30" fill="#d05060" rx="1"/>
  <rect x="85"  y="118" width="7"  height="32" fill="#4098b0" rx="1"/>
  <rect x="94"  y="117" width="10" height="34" fill="#b88840" rx="1"/>
  <rect x="106" y="119" width="6"  height="31" fill="#c85838" rx="1"/>
  <rect x="114" y="118" width="8"  height="32" fill="#4870c0" rx="1"/>
  <rect x="124" y="117" width="7"  height="34" fill="#58b068" rx="1"/>
  <rect x="133" y="119" width="6"  height="31" fill="#c08848" rx="1"/>
  <rect x="147" y="118" width="7"  height="32" fill="#c85838" rx="1"/>
  <rect x="156" y="117" width="9"  height="34" fill="#4870c0" rx="1"/>
  <rect x="167" y="119" width="8"  height="30" fill="#58b068" rx="1"/>
  <rect x="177" y="118" width="6"  height="32" fill="#c08848" rx="1"/>
  <rect x="185" y="117" width="9"  height="34" fill="#9858c8" rx="1"/>
  <rect x="196" y="119" width="7"  height="30" fill="#c85068" rx="1"/>
  <rect x="205" y="118" width="8"  height="32" fill="#4890b8" rx="1"/>
  <rect x="215" y="117" width="10" height="34" fill="#b89048" rx="1"/>
  <rect x="227" y="119" width="6"  height="30" fill="#c04868" rx="1"/>
  <rect x="235" y="118" width="8"  height="32" fill="#408878" rx="1"/>
  <rect x="245" y="117" width="7"  height="34" fill="#d05050" rx="1"/>
  <rect x="254" y="119" width="9"  height="30" fill="#5090d0" rx="1"/>
  <rect x="265" y="118" width="7"  height="32" fill="#50b058" rx="1"/>

  <!-- LOWER SHELF books (y=160 to y=198) -->
  <rect x="28"  y="162" width="9"  height="33" fill="#c84040" rx="1"/>
  <rect x="39"  y="164" width="7"  height="30" fill="#4080c8" rx="1"/>
  <rect x="48"  y="161" width="8"  height="34" fill="#48a850" rx="1"/>
  <rect x="58"  y="163" width="6"  height="31" fill="#c87030" rx="1"/>
  <rect x="66"  y="161" width="10" height="34" fill="#8840b8" rx="1"/>
  <rect x="78"  y="164" width="7"  height="30" fill="#c04858" rx="1"/>
  <rect x="87"  y="162" width="9"  height="32" fill="#3888a8" rx="1"/>
  <rect x="98"  y="161" width="6"  height="34" fill="#a87838" rx="1"/>
  <rect x="106" y="163" width="8"  height="31" fill="#c85030" rx="1"/>
  <rect x="116" y="162" width="7"  height="32" fill="#4860b0" rx="1"/>
  <rect x="125" y="161" width="8"  height="34" fill="#50a860" rx="1"/>
  <rect x="135" y="163" width="6"  height="31" fill="#b87038" rx="1"/>
  <rect x="147" y="162" width="8"  height="33" fill="#9038a0" rx="1"/>
  <rect x="157" y="164" width="10" height="30" fill="#c84848" rx="1"/>
  <rect x="169" y="161" width="6"  height="34" fill="#3878c0" rx="1"/>
  <rect x="177" y="163" width="8"  height="31" fill="#a07638" rx="1"/>
  <rect x="187" y="162" width="7"  height="32" fill="#c04060" rx="1"/>
  <rect x="196" y="161" width="9"  height="34" fill="#408870" rx="1"/>
  <rect x="207" y="163" width="6"  height="30" fill="#c84040" rx="1"/>
  <rect x="215" y="162" width="8"  height="32" fill="#4080c8" rx="1"/>
  <rect x="225" y="161" width="7"  height="34" fill="#48a850" rx="1"/>
  <rect x="234" y="163" width="9"  height="30" fill="#c87030" rx="1"/>
  <rect x="245" y="162" width="7"  height="32" fill="#8840b8" rx="1"/>
  <rect x="254" y="161" width="8"  height="34" fill="#c04858" rx="1"/>
  <rect x="264" y="163" width="8"  height="30" fill="#3888a8" rx="1"/>

  <!-- READING TABLE inside -->
  <rect x="42"  y="216" width="68" height="22" fill="#9a5018" rx="3"/>
  <rect x="44"  y="218" width="64" height="18" fill="#b86028" rx="2"/>
  <rect x="48"  y="236" width="6"  height="18" fill="#7a3e14" rx="1"/>
  <rect x="66"  y="236" width="6"  height="18" fill="#7a3e14" rx="1"/>
  <rect x="84"  y="236" width="6"  height="18" fill="#7a3e14" rx="1"/>
  <!-- plant on table -->
  <rect x="88"  y="212" width="6"  height="8"  fill="#6a3a10" rx="1"/>
  <ellipse cx="91" cy="210" rx="9" ry="7" fill="#389830" opacity="0.9"/>
  <ellipse cx="86" cy="213" rx="5" ry="4" fill="#48b038" opacity="0.8"/>
  <ellipse cx="96" cy="212" rx="5" ry="4" fill="#48b038" opacity="0.8"/>
  <!-- open book on table -->
  <rect x="50"  y="214" width="30" height="4"  fill="#e8dcc8" rx="1"/>
  <line x1="65" y1="214" x2="65" y2="218" stroke="#c8b8a0" stroke-width="0.8"/>

  <!-- FRAME around open display -->
  <rect x="22"  y="56" width="252" height="202" fill="none" stroke="#5a2808" stroke-width="5" rx="4"/>

  <!-- INTERIOR FAIRY LIGHTS string -->
  <path d="M24,72 Q60,64 100,72 Q140,80 180,68 Q220,58 272,66" stroke="#b87820" stroke-width="1.5" fill="none" opacity="0.85"/>
  <!-- bulbs with glow -->
  <circle cx="36"  cy="70" r="4.5" fill="#ffe870" opacity="0.95"/>
  <circle cx="36"  cy="70" r="8"   fill="#ffe870" opacity="0.28"/>
  <circle cx="56"  cy="66" r="4"   fill="#ffd050" opacity="0.9"/>
  <circle cx="56"  cy="66" r="7"   fill="#ffd050" opacity="0.22"/>
  <circle cx="76"  cy="69" r="4.5" fill="#ffe870" opacity="0.95"/>
  <circle cx="96"  cy="73" r="4"   fill="#ffd050" opacity="0.9"/>
  <circle cx="116" cy="68" r="4.5" fill="#ffe870" opacity="0.9"/>
  <circle cx="136" cy="63" r="4"   fill="#ffd050" opacity="0.85"/>
  <circle cx="156" cy="66" r="4.5" fill="#ffe870" opacity="0.9"/>
  <circle cx="176" cy="64" r="4"   fill="#ffd050" opacity="0.85"/>
  <circle cx="196" cy="68" r="4.5" fill="#ffe870" opacity="0.88"/>
  <circle cx="216" cy="63" r="4"   fill="#ffd050" opacity="0.82"/>
  <circle cx="236" cy="66" r="4.5" fill="#ffe870" opacity="0.85"/>
  <circle cx="256" cy="63" r="4"   fill="#ffd050" opacity="0.8"/>
  <circle cx="270" cy="67" r="4"   fill="#ffe870" opacity="0.78"/>

  <!-- RIGHT PANEL — side panel with coffee machine peek + flowers -->
  <rect x="278" y="58" width="102" height="196" fill="#c05068" rx="3"/>
  <!-- right panel — plain pink, coffee machine placed externally -->
  <!-- flower box on right panel -->
  <rect x="282" y="158" width="92" height="14" fill="#7a3010" rx="3"/>
  <rect x="284" y="155" width="88" height="8"  fill="#9a4010" rx="2"/>
  <circle cx="296" cy="153" r="8"  fill="#f060a0" opacity="0.92"/>
  <circle cx="296" cy="153" r="3.5" fill="#ffc0d8"/>
  <circle cx="312" cy="150" r="9"  fill="#e84888" opacity="0.92"/>
  <circle cx="312" cy="150" r="4"  fill="#ffb0cc"/>
  <circle cx="328" cy="153" r="8"  fill="#f080b0" opacity="0.88"/>
  <circle cx="328" cy="153" r="3.5" fill="#ffc0d8"/>
  <circle cx="344" cy="150" r="9"  fill="#e84888" opacity="0.88"/>
  <circle cx="344" cy="150" r="4"  fill="#ffb0cc"/>
  <circle cx="360" cy="153" r="8"  fill="#f060a0" opacity="0.85"/>
  <circle cx="360" cy="153" r="3.5" fill="#ffc0d8"/>

  <!-- WOODEN STEPS -->
  <rect x="120" y="268" width="120" height="10" fill="#c09040" rx="3"/>
  <rect x="120" y="268" width="120" height="3"  fill="#d8a850" rx="1"/>
  <rect x="112" y="278" width="136" height="10" fill="#a87830" rx="3"/>
  <rect x="112" y="278" width="136" height="3"  fill="#c09040" rx="1"/>

  <!-- FLOWERS climbing left side -->
  <ellipse cx="16" cy="180" rx="16" ry="46" fill="#509a30" opacity="0.65"/>
  <circle cx="8"  cy="140" r="10" fill="#e85890" opacity="0.88"/>
  <circle cx="8"  cy="140" r="4"  fill="#ffe090"/>
  <circle cx="16" cy="128" r="9"  fill="#f070a8" opacity="0.92"/>
  <circle cx="16" cy="128" r="3.5" fill="#ffd070"/>
  <circle cx="8"  cy="158" r="8"  fill="#e85890" opacity="0.85"/>
  <circle cx="8"  cy="158" r="3"  fill="#ffe090"/>
  <circle cx="16" cy="170" r="9"  fill="#f090c0" opacity="0.88"/>
  <circle cx="16" cy="170" r="3.5" fill="#ffd080"/>
  <circle cx="8"  cy="184" r="8"  fill="#e87098" opacity="0.82"/>
  <circle cx="16" cy="196" r="7"  fill="#f080b0" opacity="0.78"/>
  <circle cx="8"  cy="208" r="6"  fill="#e85890" opacity="0.72"/>

  <!-- WHEELS — pink-toned hubs -->
  <circle cx="80"  cy="296" r="22" fill="#3a1a2a"/>
  <circle cx="80"  cy="296" r="15" fill="#5a2a3a"/>
  <circle cx="80"  cy="296" r="8"  fill="#c87890" opacity="0.85"/>
  <circle cx="80"  cy="296" r="4"  fill="#e090a8"/>
  <!-- wheel bolts -->
  <circle cx="72"  cy="288" r="2.5" fill="#4a2030"/>
  <circle cx="88"  cy="288" r="2.5" fill="#4a2030"/>
  <circle cx="72"  cy="304" r="2.5" fill="#4a2030"/>
  <circle cx="88"  cy="304" r="2.5" fill="#4a2030"/>
  <circle cx="320" cy="296" r="22" fill="#3a1a2a"/>
  <circle cx="320" cy="296" r="15" fill="#5a2a3a"/>
  <circle cx="320" cy="296" r="8"  fill="#c87890" opacity="0.85"/>
  <circle cx="320" cy="296" r="4"  fill="#e090a8"/>
  <circle cx="312" cy="288" r="2.5" fill="#4a2030"/>
  <circle cx="328" cy="288" r="2.5" fill="#4a2030"/>
  <circle cx="312" cy="304" r="2.5" fill="#4a2030"/>
  <circle cx="328" cy="304" r="2.5" fill="#4a2030"/>

  <!-- FAIRY LIGHTS external string draped over top -->
  <path d="M10,52 Q80,38 160,46 Q240,54 380,42" stroke="#b89040" stroke-width="1.5" fill="none"/>
  <circle cx="28"  cy="48" r="4.5" fill="#ffe870" opacity="0.9"/>
  <circle cx="28"  cy="48" r="8"   fill="#ffe870" opacity="0.22"/>
  <circle cx="60"  cy="42" r="4"   fill="#ffc0a0" opacity="0.88"/>
  <circle cx="60"  cy="42" r="7"   fill="#ffc0a0" opacity="0.2"/>
  <circle cx="92"  cy="40" r="4.5" fill="#a0f0c0" opacity="0.85"/>
  <circle cx="124" cy="44" r="4"   fill="#ffe870" opacity="0.88"/>
  <circle cx="156" cy="47" r="4.5" fill="#ffc0a0" opacity="0.85"/>
  <circle cx="188" cy="44" r="4"   fill="#a0c8ff" opacity="0.88"/>
  <circle cx="220" cy="40" r="4.5" fill="#ffe870" opacity="0.82"/>
  <circle cx="252" cy="42" r="4"   fill="#a0f0c0" opacity="0.82"/>
  <circle cx="284" cy="44" r="4.5" fill="#ffc0a0" opacity="0.80"/>
  <circle cx="316" cy="40" r="4"   fill="#ffe870" opacity="0.78"/>
  <circle cx="348" cy="43" r="4.5" fill="#a0c8ff" opacity="0.75"/>
  <circle cx="374" cy="41" r="4"   fill="#ffe870" opacity="0.72"/>

</svg>